o terrain
v 159.734711 -39.382812 -159.734711
v -159.734711 -48.391636 -159.734711
v 159.734711 -10.0 159.734711
v -159.734711 -76.156403 159.734711
v 159.734711 -30.056684 0.0
v 0.0 -24.381020 -159.734711
v -159.734711 -80.996529 0.0
v 0.0 -65.685669 159.734711
v 0.0 -74.189705 0.0
v 159.734711 -25.226448 -79.867355
v -79.867355 -24.381020 -159.734711
v -159.734711 -73.863907 79.867355
v 79.867355 -41.966980 159.734711
v 159.734711 -26.837248 79.867355
v 79.867355 -39.607468 -159.734711
v -159.734711 -88.315475 -79.867355
v -79.867355 -63.230232 159.734711
v 0.0 -61.857758 79.867355
v 0.0 -41.460255 -79.867355
v 79.867355 -47.014618 0.0
v -79.867355 -64.323479 0.0
v -79.867355 -58.150230 -79.867355
v 79.867355 -58.821232 -79.867355
v 79.867355 -41.931198 79.867355
v -79.867355 -46.763809 79.867355
v 159.734711 -25.226448 -119.801033
v -119.801033 -44.536060 -159.734711
v -159.734711 -64.344879 119.801033
v 119.801033 -29.711527 159.734711
v 159.734711 -26.837248 39.933678
v 39.933678 -24.381020 -159.734711
v -159.734711 -55.525230 -39.933678
v -39.933678 -54.365067 159.734711
v 0.0 -30.554268 119.801033
v 0.0 -41.460255 -39.933678
v 119.801033 -10.0 0.0
v -39.933678 -74.189705 0.0
v 159.734711 -25.226448 -39.933678
v -39.933678 -24.381020 -159.734711
v -159.734711 -68.663658 39.933678
v 39.933678 -64.158752 159.734711
v 159.734711 -10.0 119.801033
v 119.801033 -39.607468 -159.734711
v -159.734711 -72.249542 -119.801033
v -119.801033 -55.010670 159.734711
v 0.0 -80.233322 39.933678
v 0.0 -49.099895 -119.801033
v 39.933678 -53.817135 0.0
v -119.801033 -64.113884 0.0
v -79.867355 -68.016457 -39.933678
v -79.867355 -58.150230 -119.801033
v -39.933678 -65.363235 -79.867355
v -119.801033 -67.320213 -79.867355
v 79.867355 -72.217865 -39.933678
v 79.867355 -35.203251 -119.801033
v 119.801033 -63.826340 -79.867355
v 39.933678 -47.998997 -79.867355
v 79.867355 -26.837248 119.801033
v 79.867355 -38.845699 39.933678
v 119.801033 -41.931198 79.867355
v 39.933678 -66.612968 79.867355
v -79.867355 -30.554268 119.801033
v -79.867355 -46.763809 39.933678
v -39.933678 -61.857758 79.867355
v -121.778839 -44.958416 97.608177
v -119.801033 -41.367542 39.933678
v -39.933678 -55.273144 39.933678
v -39.933678 -30.554268 119.801033
v 39.933678 -66.612968 39.933678
v 119.801033 -55.682945 39.933678
v 119.801033 -26.837248 119.801033
v 39.933678 -24.381020 -119.801033
v 119.801033 -50.429699 -119.801033
v 119.801033 -48.599892 -39.933678
v -119.801033 -67.062820 -119.801033
v -39.933678 -65.363235 -119.801033
v -39.933678 -75.229462 -39.933678
v -119.801033 -68.828560 -39.933678
v 39.933678 -47.998997 -39.933678
v 39.933678 -47.391518 119.801033
v -119.801033 -48.883430 119.801033
vt 1.0 0.875000
vt 0.875000 1.0
vt 0.875000 0.875000
vt 0.375000 0.875000
vt 0.500000 1.0
vt 0.375000 1.0
vt 0.500000 0.375000
vt 0.375000 0.500000
vt 0.375000 0.375000
vt 1.0 0.375000
vt 0.875000 0.500000
vt 0.875000 0.375000
vt 0.750000 0.375000
vt 0.625000 0.500000
vt 0.625000 0.375000
vt 0.750000 0.125000
vt 0.625000 0.250000
vt 0.625000 0.125000
vt 1.0 0.125000
vt 0.875000 0.250000
vt 0.875000 0.125000
vt 0.125000 0.375000
vt 0.250000 0.500000
vt 0.125000 0.500000
vt 0.125000 0.125000
vt 0.250000 0.250000
vt 0.125000 0.250000
vt 0.500000 0.125000
vt 0.375000 0.250000
vt 0.375000 0.125000
vt 0.250000 0.875000
vt 0.125000 1.0
vt 0.125000 0.875000
vt 0.250000 0.625000
vt 0.125000 0.750000
vt 0.125000 0.625000
vt 0.375000 0.625000
vt 0.500000 0.750000
vt 0.375000 0.750000
vt 0.750000 0.875000
vt 0.625000 1.0
vt 0.625000 0.875000
vt 0.625000 0.625000
vt 0.750000 0.750000
vt 0.625000 0.750000
vt 0.875000 0.625000
vt 1.0 0.750000
vt 0.875000 0.750000
vt 0.750000 0.625000
vt 0.750000 0.500000
vt 1.0 0.625000
vt 0.500000 0.625000
vt 0.500000 0.500000
vt 0.500000 0.875000
vt 0.250000 0.750000
vt 0.0 0.625000
vt 0.0 0.750000
vt 0.0 0.500000
vt 0.0 1.0
vt 0.0 0.875000
vt 0.250000 0.125000
vt 0.375000 0.0
vt 0.250000 0.0
vt 0.500000 0.0
vt 0.0 0.250000
vt 0.0 0.125000
vt 0.0 0.0
vt 0.125000 0.0
vt 0.0 0.375000
vt 0.250000 0.375000
vt 0.750000 0.250000
vt 0.875000 0.0
vt 0.750000 0.0
vt 1.0 0.0
vt 0.500000 0.250000
vt 0.625000 0.0
vt 0.250000 1.0
vt 0.750000 1.0
vt 1.0 1.0
vt 1.0 0.500000
vt 1.0 0.250000
vn -0.3574 0.9231 0.1416
vn -0.0352 0.9215 0.3869
vn 0.1599 0.9768 0.1423
vn 0.3141 0.9428 -0.1113
vn 0.1777 0.9838 -0.0256
vn 0.1777 0.9841 0.0000
vn -0.1288 0.9917 0.0064
vn -0.5546 0.5983 -0.5783
vn 0.1180 0.9414 0.3158
vn -0.4702 0.7596 0.4493
vn 0.0000 0.9974 0.0718
vn 0.3703 0.8783 -0.3025
vn 0.1182 0.9930 0.0000
vn 0.0000 0.8589 0.5121
vn 0.3494 0.9245 0.1524
vn -0.6139 0.7889 0.0281
vn 0.1339 0.9910 0.0000
vn 0.0048 0.9154 -0.4025
vn -0.5107 0.7471 -0.4255
vn 0.4938 0.7900 -0.3635
vn 0.0000 0.9887 0.1496
vn 0.2179 0.8820 -0.4178
vn 0.2082 0.7344 0.6460
vn 0.0000 0.7870 -0.6169
vn 0.2851 0.7543 -0.5913
vn -0.5697 0.8194 0.0633
vn -0.1646 0.9663 -0.1977
vn -0.4370 0.8566 0.2745
vn -0.3536 0.9354 0.0000
vn 0.4477 0.8913 -0.0719
vn -0.5208 0.5618 0.6427
vn -0.3885 0.9214 0.0000
vn -0.3621 0.8589 -0.3621
vn 0.0000 0.9354 -0.3536
vn 0.2272 0.8382 0.4958
vn 0.3544 0.9295 -0.1025
vn 0.0000 1.0000 0.0000
vn -0.5337 0.8457 0.0000
vn -0.5112 0.8100 -0.2872
vn 0.3454 0.9058 0.2455
vn 0.4462 0.8884 0.1075
vn -0.5051 0.8630 0.0000
vn -0.4837 0.8178 -0.3118
vn -0.2178 0.9760 0.0000
vn -0.3596 0.7125 0.6025
vn -0.0838 0.8679 0.4896
vn -0.5068 0.8467 -0.1620
vn 0.0000 0.8503 0.5263
vn 0.1251 0.6924 0.7106
vn -0.5474 0.6473 0.5305
vn -0.5136 0.8580 0.0000
vn 0.1727 0.9562 0.2362
vn 0.0052 0.9957 -0.0921
vn -0.2176 0.9475 0.2341
vn 0.3159 0.9481 0.0358
vn 0.4564 0.7525 -0.4749
vn 0.4985 0.8219 0.2757
vn 0.1616 0.9869 0.0000
vn -0.4337 0.8426 0.3192
vn -0.4338 0.8428 -0.3186
vn 0.1067 0.8959 -0.4312
vn -0.3347 0.7293 0.5967
vn -0.1185 0.9201 -0.3735
vn -0.3542 0.9149 0.1934
vn -0.4528 0.8550 0.2529
vn 0.3018 0.7158 0.6297
vn -0.3670 0.7194 0.5897
vn -0.3357 0.7942 0.5065
vn 0.2389 0.9669 -0.0894
vn -0.4384 0.8338 0.3355
vn -0.4473 0.7563 -0.4773
vn 0.3118 0.8178 0.4837
vn 0.1588 0.9697 -0.1855
vn -0.2759 0.8989 0.3405
vn 0.0000 0.9970 0.0770
vn -0.2960 0.8677 -0.3993
vn -0.1693 0.7628 0.6241
vn 0.2084 0.9780 0.0000
vn -0.5611 0.8208 0.1069
vn 0.0701 0.9955 0.0644
vn 0.1166 0.8630 -0.4916
vn -0.3745 0.8859 -0.2736
vn 0.0000 0.9867 0.1627
vn 0.4918 0.7869 -0.3727
vn 0.1915 0.8985 -0.3951
vn 0.0000 0.9266 -0.3761
vn -0.5258 0.8506 0.0000
vn -0.5521 0.7940 0.2544
vn -0.3196 0.9369 0.1418
vn -0.5640 0.7808 -0.2689
vn -0.4294 0.5944 0.6800
vn 0.3818 0.9055 -0.1852
vn -0.4417 0.8948 0.0644
vn -0.3333 0.8819 -0.3333
vn 0.2616 0.9652 0.0000
vn -0.4658 0.7524 0.4658
vn -0.6756 0.6990 0.2345
vn -0.0054 0.9652 0.2616
vn 0.0000 0.9940 -0.1096
vn -0.3879 0.6627 -0.6406
vn -0.6703 0.6934 -0.2644
vn -0.2238 0.9746 0.0063
vn -0.1908 0.8550 0.4823
vn -0.1108 0.8532 0.5097
vn -0.3772 0.9261 0.0000
vn -0.2734 0.6713 0.6889
vn 0.0000 0.7636 0.6457
vn 0.0000 0.9997 -0.0260
vn -0.6345 0.7503 0.1854
vn -0.0202 0.9929 -0.1172
vn -0.0203 0.9991 0.0377
vn -0.3764 0.7160 -0.5879
vn -0.1662 0.9758 0.1422
vn -0.4560 0.8206 0.3445
vn -0.4865 0.7872 -0.3789
vn 0.3149 0.7470 -0.5855
vn 0.1994 0.9686 0.1486
vn -0.4092 0.8915 0.1941
vn -0.5345 0.8221 -0.1960
s off
f 28/1/1 45/2/1 81/3/1
f 80/4/2 8/5/2 41/6/2
f 35/7/3 48/8/3 79/9/3
f 32/10/4 49/11/4 78/12/4
f 50/13/5 37/14/5 77/15/5
f 51/16/6 52/17/6 76/18/6
f 44/19/7 53/20/7 75/21/7
f 74/22/8 20/23/8 36/24/8
f 73/25/9 23/26/9 56/27/9
f 47/28/10 57/29/10 72/30/10
f 58/31/11 29/32/11 71/33/11
f 59/34/12 60/35/12 70/36/12
f 69/37/13 18/38/13 61/39/13
f 62/40/14 33/41/14 68/42/14
f 67/43/15 25/44/15 64/45/15
f 66/46/16 12/47/16 65/48/16
f 66/46/17 25/44/17 63/49/17
f 49/11/18 63/49/18 21/50/18
f 49/11/19 40/51/19 66/46/19
f 67/43/20 18/38/20 46/52/20
f 37/14/21 46/52/21 9/53/21
f 21/50/22 67/43/22 37/14/22
f 34/54/23 33/41/23 8/5/23
f 64/45/24 34/54/24 18/38/24
f 25/44/25 68/42/25 64/45/25
f 69/37/26 24/55/26 59/34/26
f 48/8/27 59/34/27 20/23/27
f 9/53/28 69/37/28 48/8/28
f 30/56/29 60/35/29 14/57/29
f 36/24/30 30/56/30 5/58/30
f 20/23/31 70/36/31 36/24/31
f 71/33/32 3/59/32 42/60/32
f 14/57/33 71/33/33 42/60/33
f 24/55/34 71/33/34 60/35/34
f 55/61/35 57/29/35 23/26/35
f 31/62/36 55/61/36 15/63/36
f 6/64/37 72/30/37 31/62/37
f 73/25/38 10/65/38 26/66/38
f 1/67/39 73/25/39 26/66/39
f 43/68/40 55/61/40 73/25/40
f 38/69/41 36/24/41 5/58/41
f 10/65/42 74/22/42 38/69/42
f 56/27/43 54/70/43 74/22/43
f 75/21/44 22/71/44 51/16/44
f 27/72/45 51/16/45 11/73/45
f 2/74/46 75/21/46 27/72/46
f 47/28/47 52/17/47 19/75/47
f 39/76/48 47/28/48 6/64/48
f 39/76/49 51/16/49 76/18/49
f 77/15/50 9/53/50 35/7/50
f 52/17/51 35/7/51 19/75/51
f 52/17/52 50/13/52 77/15/52
f 50/13/53 49/11/53 21/50/53
f 53/20/54 50/13/54 22/71/54
f 53/20/55 32/10/55 78/12/55
f 79/9/56 20/23/56 54/70/56
f 23/26/57 79/9/57 54/70/57
f 19/75/58 79/9/58 57/29/58
f 80/4/59 13/77/59 58/31/59
f 24/55/60 80/4/60 58/31/60
f 18/38/61 80/4/61 61/39/61
f 81/3/62 17/78/62 62/40/62
f 65/48/63 62/40/63 25/44/63
f 65/48/64 28/1/64 81/3/64
f 28/1/65 4/79/65 45/2/65
f 80/4/66 34/54/66 8/5/66
f 35/7/67 9/53/67 48/8/67
f 32/10/68 7/80/68 49/11/68
f 50/13/69 21/50/69 37/14/69
f 51/16/6 22/71/6 52/17/6
f 44/19/70 16/81/70 53/20/70
f 74/22/71 54/70/71 20/23/71
f 73/25/72 55/61/72 23/26/72
f 47/28/73 19/75/73 57/29/73
f 58/31/74 13/77/74 29/32/74
f 59/34/75 24/55/75 60/35/75
f 69/37/76 46/52/76 18/38/76
f 62/40/77 17/78/77 33/41/77
f 67/43/78 63/49/78 25/44/78
f 66/46/79 40/51/79 12/47/79
f 66/46/80 65/48/80 25/44/80
f 49/11/81 66/46/81 63/49/81
f 49/11/82 7/80/82 40/51/82
f 67/43/83 64/45/83 18/38/83
f 37/14/84 67/43/84 46/52/84
f 21/50/85 63/49/85 67/43/85
f 34/54/14 68/42/14 33/41/14
f 64/45/24 68/42/24 34/54/24
f 25/44/86 62/40/86 68/42/86
f 69/37/87 61/39/87 24/55/87
f 48/8/88 69/37/88 59/34/88
f 9/53/89 46/52/89 69/37/89
f 30/56/90 70/36/90 60/35/90
f 36/24/91 70/36/91 30/56/91
f 20/23/92 59/34/92 70/36/92
f 71/33/93 29/32/93 3/59/93
f 14/57/94 60/35/94 71/33/94
f 24/55/34 58/31/34 71/33/34
f 55/61/35 72/30/35 57/29/35
f 31/62/95 72/30/95 55/61/95
f 6/64/96 47/28/96 72/30/96
f 73/25/97 56/27/97 10/65/97
f 1/67/98 43/68/98 73/25/98
f 43/68/99 15/63/99 55/61/99
f 38/69/100 74/22/100 36/24/100
f 10/65/101 56/27/101 74/22/101
f 56/27/9 23/26/9 54/70/9
f 75/21/102 53/20/102 22/71/102
f 27/72/103 75/21/103 51/16/103
f 2/74/104 44/19/104 75/21/104
f 47/28/105 76/18/105 52/17/105
f 39/76/106 76/18/106 47/28/106
f 39/76/107 11/73/107 51/16/107
f 77/15/108 37/14/108 9/53/108
f 52/17/109 77/15/109 35/7/109
f 52/17/52 22/71/52 50/13/52
f 50/13/110 78/12/110 49/11/110
f 53/20/111 78/12/111 50/13/111
f 53/20/112 16/81/112 32/10/112
f 79/9/113 48/8/113 20/23/113
f 23/26/95 57/29/95 79/9/95
f 19/75/58 35/7/58 79/9/58
f 80/4/114 41/6/114 13/77/114
f 24/55/115 61/39/115 80/4/115
f 18/38/116 34/54/116 80/4/116
f 81/3/117 45/2/117 17/78/117
f 65/48/118 81/3/118 62/40/118
f 65/48/119 12/47/119 28/1/119
